<svg version="1.0" xmlns="http://www.w3.org/2000/svg"
     width="256.000000pt" height="256.000000pt" viewBox="0 0 256.000000 256.000000"
     preserveAspectRatio="xMidYMid meet">
  <g transform="translate(0.000000,256.000000) scale(0.100000,-0.100000)"
     fill="#000000" stroke="none">
    <path d="M1575 2540 c-27 -30 -28 -56 -2 -84 21 -24 28 -26 126 -27 179 -3
272 -56 328 -186 13 -31 16 -83 18 -273 2 -213 5 -240 24 -291 27 -71 66 -126
124 -174 l45 -38 -41 -31 c-23 -18 -59 -56 -80 -86 -65 -93 -70 -128 -72 -450
-1 -273 -2 -288 -23 -332 -31 -63 -85 -116 -151 -147 l-56 -26 -497 -1 -498
-2 0 796 c0 439 -4 802 -8 808 -9 14 -47 34 -64 34 -8 0 -24 -9 -36 -20 l-22
-21 0 -844 c0 -817 1 -846 19 -864 18 -18 40 -19 573 -17 509 2 557 4 603 21
105 38 201 118 243 202 43 85 45 108 47 408 1 280 2 292 24 337 47 97 166 174
264 170 16 -1 18 7 15 66 l-3 66 -40 4 c-95 8 -198 83 -238 172 -18 41 -20 69
-22 285 -2 204 -5 247 -21 285 -52 132 -152 223 -289 263 -28 8 -98 15 -161
16 -100 2 -112 0 -129 -19z"/>
    <path d="M715 2285 c-117 -26 -228 -109 -285 -211 -40 -74 -43 -92 -46 -328
-1 -120 -5 -235 -9 -255 -7 -41 -44 -109 -72 -131 -62 -51 -148 -90 -200 -90
-22 0 -23 -4 -23 -64 l0 -64 45 -7 c128 -19 230 -108 251 -220 4 -22 7 -151 7
-286 -1 -136 3 -269 8 -295 23 -124 112 -233 239 -293 l75 -36 555 -3 c456 -2
558 0 574 11 23 17 30 68 11 93 -13 18 -39 19 -562 24 -533 5 -549 6 -594 26
-63 29 -120 83 -149 141 -25 47 -25 51 -27 335 -1 314 -7 353 -61 438 -27 43
-74 93 -115 123 -18 12 -17 15 20 42 44 34 54 45 94 105 53 79 60 127 63 383
2 203 4 236 20 267 32 61 65 99 110 125 85 50 99 51 607 53 l476 1 1 -794 c0
-720 1 -797 16 -820 20 -31 67 -34 95 -6 18 18 19 48 19 864 l0 845 -21 20
c-21 20 -35 20 -547 20 -355 -1 -541 -5 -575 -13z"/>
  </g>
</svg>
